#!OML:ASF F:\VICON\USERDATA\INSTALL\rory3\rory3.ASF
:FULLY-SPECIFIED
:DEGREES
62
root -0.820032963488752 17.318981688993208 0.7627817618052717 3.3216589623560924 -0.042134477568870565 -0.21582299619380274
lfemur -12.203293390182946 2.4111452888753266 -26.20989356266351
ltibia 49.221032444562844
lfoot -3.4453748359217244 -8.0689527770505
ltoes 1.429691317605684
rfemur -28.654394961400243 -0.32042584865986523 23.346295460774737
rtibia 114.28159953628604
rfoot 0.11149472811223227 -6.4344655055829545
rtoes 7.547043292016998
lowerback 15.402277423688394 0.9033127819721385 -0.9995764013133901
upperback -0.37361935896074516 1.109774933458865 -0.35242785354102346
thorax -9.008350846921703 0.5543868405673285 0.14609419581657523
lowerneck -20.563976897965407 -4.508712907952032 -1.8892333905378447
upperneck 9.762539895766388 -6.25912862133914 4.2340007166485965
head 6.654096575750467 -2.7050811544844513 0.9420213526716636
lclavicle 1.1245391003252774e-15 -1.4766016290207999e-15
lhumerus -41.63625749010634 -16.61510362298359 97.96584350564044
lradius 120.14742639925862
lwrist 31.740039197758243
lhand -31.590602824300603 0.5302253817690268
lfingers 7.125019999999998
lthumb -5.313139814236294 30.113047305178434
rclavicle 1.1245391004034504e-15 -1.4766016289680819e-15
rhumerus -51.4470433483745 11.229923035834794 -101.6675960904363
rradius 116.06277794851832
rwrist -13.600766173006939
rhand -20.157074549776915 35.66628159506436
rfingers 7.125019999999998
rthumb 5.366872118725201 6.231658306992732
63
root -0.8383269451740815 17.294098689607967 0.9177414767876195 3.3251806278786162 -0.5666652893890487 -0.3737443539052414
lfemur -11.233411448032692 2.5814775100357545 -25.800766940164145
ltibia 49.42086621247041
lfoot -4.035250335843058 -8.608243140899063
ltoes -0.8443111339511153
rfemur -30.008012577894668 0.006210393114548296 23.776414311765546
rtibia 113.33242132507037
rfoot 0.18057805573816177 -6.452100256176065
rtoes 8.649987575254766
lowerback 15.55554408843337 0.8964020346094809 -1.0138786157187483
upperback -0.35329699073387105 1.0984120454235613 -0.2568873215892362
thorax -9.186178991731063 0.5559377732602255 0.24238697478824978
lowerneck -20.89365001352852 -4.427235610036828 -1.8879384479126418
upperneck 9.871087911879114 -6.148162125039652 4.234909548544666
head 6.748453502438638 -2.644227726206361 0.9481038628794807
lclavicle 1.1245391003298692e-15 -1.4766016290169861e-15
lhumerus -42.347931942821965 -16.340469365278175 98.05892478659513
lradius 119.07871029694975
lwrist 32.08255615068386
lhand -31.64101532858878 0.5593698051185129
lfingers 7.125019999999998
lthumb -5.292372143540189 30.237187486548315
rclavicle 1.1245391004055557e-15 -1.476601628966079e-15
rhumerus -51.67116693351382 11.127263707130107 -101.82551130807798
rradius 115.83643413359324
rwrist -13.054352452054355
rhand -20.035019770517064 35.40686683855384
rfingers 7.125019999999998
rthumb 5.298895581633152 5.793198885215449
64
root -0.8483028379513448 17.25827697021058 1.3307171850190675 3.2967434349051965 -1.0473596435511914 -0.4709687810929415
lfemur -10.253810436100647 2.7466046506099637 -25.4630545688721
ltibia 49.520729300836585
lfoot -3.964084710496602 -8.94263407443773
ltoes -1.2318785039836104
rfemur -31.125898060940543 0.35697453597374684 24.116566927820294
rtibia 112.26982834999791
rfoot 0.11791923553702865 -6.5650398788593325
rtoes 8.5961766851998
lowerback 15.653945479633656 0.8789069650480614 -1.0381563035230783
upperback -0.3249303512886651 1.0714847865490338 -0.17993376336048605
thorax -9.284278247241383 0.555705302248474 0.3464428195405483
lowerneck -21.179609914256012 -4.330101564662548 -1.8996795420333363
upperneck 9.919040671925178 -6.014902447843628 4.221996870920902
head 6.836436507588178 -2.57180172199967 0.9535137100416927
lclavicle 1.1245391003311071e-15 -1.4766016290157772e-15
lhumerus -43.17105728464062 -16.045638053983456 98.17356400838423
lradius 117.97339196475404
lwrist 32.27626186198637
lhand -31.603172233208067 0.6838576417984916
lfingers 7.125019999999998
lthumb -5.200927079579299 30.453790697196006
rclavicle 1.1245391004070288e-15 -1.476601628964674e-15
rhumerus -51.905705979486946 11.038295921292596 -101.9490966113376
rradius 115.7089153198063
rwrist -12.762396585985233
rhand -19.894878642660437 35.42071090501962
rfingers 7.125019999999998
rthumb 5.31283489913799 5.764982939183011
65
root -0.8473035182087031 17.249585968163874 1.7754318878724256 3.3110736433341663 -1.309306081040153 -0.5650578407185214
lfemur -9.336793129596387 2.7882525155003233 -25.12921354752975
ltibia 49.57002957117783
lfoot -3.209538802493656 -8.800874357572317
ltoes -1.287310593541342
rfemur -31.92770926755736 0.5239433615255271 24.501558981918944
rtibia 110.8544637540594
rfoot 0.18070437193164457 -6.630613954809298
rtoes 9.36925469019383
lowerback 15.672616129799344 0.8211165426354878 -1.0035346570138695
upperback -0.2994037065016908 0.9874892789751053 -0.12092181301200755
thorax -9.358250237786223 0.5114900617284033 0.4286350528129972
lowerneck -21.411989640869578 -4.213375229926263 -1.90798144551064
upperneck 9.935462942652164 -5.8324951515410115 4.177175847438116
head 6.883158057665199 -2.482681751816801 0.9531800221573765
lclavicle 1.1245391003333021e-15 -1.4766016290137589e-15
lhumerus -44.10412176770396 -15.741052793070898 98.23589381679443
lradius 116.82956359042079
lwrist 32.17235732110549
lhand -31.547466136493124 0.7307984662330282
lfingers 7.125019999999998
lthumb -5.050967826291513 30.533364955887926
rclavicle 1.1245391004094532e-15 -1.4766016289624636e-15
rhumerus -52.165416563965344 10.961730517585286 -102.05747625477515
rradius 115.69969346756064
rwrist -12.485906484738646
rhand -19.758128821759115 35.54243066110331
rfingers 7.125019999999998
rthumb 5.314326229898425 5.800409534679587
66
root -0.8677714706223855 17.23467220183978 1.923163702711764 3.3780754551789447 -1.6840983879706444 -0.7826744660682727
lfemur -8.569402101026512 2.879651710607856 -24.593777602754198
ltibia 49.618906996011155
lfoot -2.448907470346542 -8.488896094967531
ltoes -1.899514489932506
rfemur -32.66974961639247 0.9741760574357814 25.106162384015448
rtibia 109.31724724691207
rfoot 0.05136940184678451 -7.104855649464529
rtoes 10.098043001258635
lowerback 15.805787252095966 0.7905773607942554 -0.910050119848248
upperback -0.3112459904565263 0.9743159505597841 0.042083331122530154
thorax -9.539215608352494 0.5095913304310841 0.5262625200150889
lowerneck -21.56152677888994 -4.101265187457079 -1.9169107692936644
upperneck 9.945799020281896 -5.661270872452254 4.113119584183866
head 6.919711306117707 -2.4006313389446565 0.9451545215386657
lclavicle 1.1245391003376466e-15 -1.4766016290101721e-15
lhumerus -45.12930882513537 -15.466127665972056 98.28828989308775
lradius 115.66754638971643
lwrist 31.68298953992324
lhand -31.302070982610193 0.6609906476999148
lfingers 7.125019999999998
lthumb -4.969855852242563 30.42574270633898
rclavicle 1.124539100412153e-15 -1.4766016289600514e-15
rhumerus -52.43324593638894 10.905596993418216 -102.13941311597847
rradius 115.7722952327776
rwrist -12.517470939362818
rhand -19.563357202132252 35.77691230772085
rfingers 7.125019999999998
rthumb 5.4515436477810795 6.216963367055449
67
root -0.8895817968103388 17.234714107582764 2.106495669429224 3.4684152179145933 -2.1256505037841746 -1.0280218761200497
lfemur -7.919885040111961 2.990023891759771 -24.00046639067195
ltibia 49.74471143821424
lfoot -0.752620758655953 -7.881891392999494
ltoes -1.9876905845437198
rfemur -33.16736821997782 1.5319904041560126 25.752388469268872
rtibia 107.5387753367912
rfoot 0.22930617187111446 -7.464281182243568
rtoes 9.878430051369982
lowerback 15.90486643594572 0.7758460296169971 -0.7687848699769713
upperback -0.3113589823552371 0.9858702451914783 0.2412571446273719
thorax -9.697664794019417 0.5125657625872632 0.5954077604475685
lowerneck -21.600656319167108 -3.9978063392177905 -1.9302658775178527
upperneck 9.960604926963649 -5.490028736125627 4.027097956556378
head 6.922149788501266 -2.326300920426407 0.9309092104997889
lclavicle 1.1245391003388863e-15 -1.4766016290087896e-15
lhumerus -46.112289880372735 -15.106694098902214 98.37187783131473
lradius 114.52752826038446
lwrist 31.156938329583145
lhand -31.255632254728635 0.5071251254281599
lfingers 7.125019999999998
lthumb -4.871284837755591 30.30313554447518
rclavicle 1.12453910041396e-15 -1.4766016289582225e-15
rhumerus -52.695734987751905 10.862368265049886 -102.17423644834835
rradius 115.89554367894961
rwrist -12.771550770930507
rhand -19.347546415042085 36.18568386938963
rfingers 7.125019999999998
rthumb 5.566460458774099 6.703324968755855
